<?xml version="1.0" standalone="no"?>
<!DOCTYPE svg PUBLIC "-//W3C//DTD SVG 20010904//EN"
 "http://www.w3.org/TR/2001/REC-SVG-20010904/DTD/svg10.dtd">
<svg version="1.0" xmlns="http://www.w3.org/2000/svg"
 width="50.000000pt" height="50.000000pt" viewBox="0 0 50.000000 50.000000"
 preserveAspectRatio="xMidYMid meet">

<g transform="translate(0.000000,50.000000) scale(0.100000,-0.100000)"
fill="#000000" stroke="none">
<path d="M120 275 c0 -8 9 -15 20 -15 18 0 20 -7 20 -75 0 -68 -2 -75 -20 -75
-13 0 -20 -7 -20 -20 0 -18 7 -20 60 -20 53 0 60 2 60 20 0 13 -7 20 -20 20
-18 0 -20 7 -20 71 0 62 2 71 20 76 11 3 20 12 20 19 0 10 -16 14 -60 14 -47
0 -60 -3 -60 -15z"/>
<path d="M280 283 c0 -4 14 -53 30 -107 17 -55 30 -101 30 -103 0 -3 10 -3 22
-1 19 2 27 18 49 88 14 47 29 95 33 108 6 19 4 22 -17 22 -22 0 -27 -7 -42
-70 -10 -39 -19 -69 -22 -67 -2 3 -12 33 -21 68 -14 52 -21 65 -40 67 -12 2
-22 0 -22 -5z"/>
</g>
</svg>
